<svg width="657.9px" height="120.8px" xmlns="http://www.w3.org/2000/svg" viewBox="-78.9375 14.600000000000001 657.875 120.8" preserveAspectRatio="xMidYMid"><defs><linearGradient id="editing-glowing-gradient" x1="0.8146601955249185" x2="0.18533980447508147" y1="0.8885729807284856" y2="0.11142701927151444"><stop offset="0" stop-color="#67ff43"></stop><stop offset="1" stop-color="#90ffff"></stop></linearGradient><filter id="editing-glowing" x="-100%" y="-100%" width="300%" height="300%"><feGaussianBlur in="SourceGraphic" result="blur" stdDeviation="10"></feGaussianBlur><feMerge><feMergeNode in="blur"></feMergeNode><feMergeNode in="SourceGraphic"></feMergeNode></feMerge></filter></defs><g filter="url(#editing-glowing)"><g transform="matrix(1.1,0,0,1.3,3.4,143.5)"><path d="M -19.1 -32.9 L -33 -32.9 L -24.9 -75.2 L -10.8 -75.2 L -19.1 -32.9 Z M 36.7 -31.7 L 36.7 -31.7 L 36.7 -31.7 Q 28.9 -31.7 28.9 -37.7 L 28.9 -37.7 L 28.9 -37.7 Q 28.9 -40.3 30 -45.4 L 30 -45.4 L 30 -45.4 Q 31.2 -50.5 31.5 -52.5 L 31.5 -52.5 L 31.5 -52.5 Q 32.4 -57.2 32.4 -58.7 L 32.4 -58.7 L 32.4 -58.7 Q 32.4 -61.9 30 -61.9 L 30 -61.9 L 30 -61.9 Q 28.4 -61.9 26.9 -59.7 L 26.9 -59.7 L 26.9 -59.7 Q 25.3 -57.5 24.6 -53.1 L 24.6 -53.1 L 20.7 -32.9 L 8.2 -31.7 L 11.6 -49.1 L 11.6 -49.1 Q 12.2 -52 12.7 -55.2 L 12.7 -55.2 L 12.7 -55.2 Q 13.2 -58.5 13.2 -59 L 13.2 -59 L 13.2 -59 Q 13.2 -61.9 11.1 -61.9 L 11.1 -61.9 L 11.1 -61.9 Q 9.6 -61.9 8 -59.8 L 8 -59.8 L 8 -59.8 Q 6.4 -57.6 5.5 -53.1 L 5.5 -53.1 L 1.6 -32.9 L -11 -31.7 L -4.3 -65.6 L 6.1 -66.9 L 5 -60.4 L 5 -60.4 Q 6.7 -63.9 9.8 -65.4 L 9.8 -65.4 L 9.8 -65.4 Q 12.9 -66.9 17.7 -66.9 L 17.7 -66.9 L 17.7 -66.9 Q 20.4 -66.9 22.2 -65.5 L 22.2 -65.5 L 22.2 -65.5 Q 24 -64.2 24.6 -62 L 24.6 -62 L 24.6 -62 Q 25.7 -64.2 28.4 -65.6 L 28.4 -65.6 L 28.4 -65.6 Q 31.2 -66.9 34.6 -66.9 L 34.6 -66.9 L 34.6 -66.9 Q 38.1 -66.9 39.8 -66.1 L 39.8 -66.1 L 39.8 -66.1 Q 41.5 -65.4 42.5 -64.2 L 42.5 -64.2 L 42.5 -64.2 Q 44.2 -61.9 44.2 -57.8 L 44.2 -57.8 L 44.2 -57.8 Q 44.2 -53.8 42.5 -45.4 L 42.5 -45.4 L 42.5 -45.4 Q 41.6 -41.3 41.6 -39.8 L 41.6 -39.8 L 41.6 -39.8 Q 41.6 -38.3 42.5 -37.4 L 42.5 -37.4 L 42.5 -37.4 Q 43.3 -36.5 44.6 -36.4 L 44.6 -36.4 L 44.6 -36.4 Q 44 -34.2 41.8 -32.9 L 41.8 -32.9 L 41.8 -32.9 Q 39.5 -31.7 36.7 -31.7 Z M 52.3 -34.9 L 52.3 -34.9 L 52.3 -34.9 Q 50.8 -36.5 50.1 -39.2 L 50.1 -39.2 L 50.1 -39.2 Q 49.5 -41.8 49.5 -46.1 L 49.5 -46.1 L 49.5 -46.1 Q 49.5 -50.4 50.9 -54.3 L 50.9 -54.3 L 50.9 -54.3 Q 52.4 -58.2 55.1 -61 L 55.1 -61 L 55.1 -61 Q 60.6 -66.9 69.7 -66.9 L 69.7 -66.9 L 69.7 -66.9 Q 73 -66.9 75.3 -65.8 L 75.3 -65.8 L 86.3 -66.9 L 81.5 -41.9 L 81.5 -41.9 Q 81.3 -41.1 81.3 -39.7 L 81.3 -39.7 L 81.3 -39.7 Q 81.3 -38.3 82.2 -37.4 L 82.2 -37.4 L 82.2 -37.4 Q 83.1 -36.5 84.3 -36.4 L 84.3 -36.4 L 84.3 -36.4 Q 83.7 -34.2 81.4 -32.9 L 81.4 -32.9 L 81.4 -32.9 Q 79 -31.7 76.4 -31.7 L 76.4 -31.7 L 76.4 -31.7 Q 73.8 -31.7 72 -32.7 L 72 -32.7 L 72 -32.7 Q 70.3 -33.6 69.8 -35.3 L 69.8 -35.3 L 69.8 -35.3 Q 68.7 -33.7 66.6 -32.7 L 66.6 -32.7 L 66.6 -32.7 Q 64.4 -31.7 61.5 -31.7 L 61.5 -31.7 L 61.5 -31.7 Q 58.6 -31.7 56.2 -32.4 L 56.2 -32.4 L 56.2 -32.4 Q 53.8 -33.2 52.3 -34.9 Z M 65.8 -60.8 L 65.8 -60.8 L 65.8 -60.8 Q 65.1 -59.7 64.4 -57.7 L 64.4 -57.7 L 64.4 -57.7 Q 63.8 -55.8 62.7 -50.6 L 62.7 -50.6 L 62.7 -50.6 Q 61.7 -45.4 61.7 -41.6 L 61.7 -41.6 L 61.7 -41.6 Q 61.7 -37.9 62.3 -36.8 L 62.3 -36.8 L 62.3 -36.8 Q 62.8 -35.8 63.9 -35.8 L 63.9 -35.8 L 63.9 -35.8 Q 65.9 -35.8 67.4 -37.7 L 67.4 -37.7 L 67.4 -37.7 Q 68.9 -39.7 69.5 -43.1 L 69.5 -43.1 L 72.9 -61.9 L 72.9 -61.9 Q 71.5 -63 70 -63 L 70 -63 L 70 -63 Q 68.4 -63 67.5 -62.5 L 67.5 -62.5 L 67.5 -62.5 Q 66.6 -62 65.8 -60.8 Z M 94 -59.7 L 94 -59.7 L 94 -59.7 Q 96.2 -62.8 99.5 -64.8 L 99.5 -64.8 L 99.5 -64.8 Q 102.8 -66.9 106.8 -66.9 L 106.8 -66.9 L 106.8 -66.9 Q 110.8 -66.9 112.8 -65.6 L 112.8 -65.6 L 125.3 -66.9 L 121 -42.3 L 121 -42.3 Q 118.7 -29.7 114 -24.8 L 114 -24.8 L 114 -24.8 Q 109.4 -20.1 100.6 -20.1 L 100.6 -20.1 L 100.6 -20.1 Q 93.9 -20.1 90 -22.3 L 90 -22.3 L 90 -22.3 Q 86.2 -24.4 86.2 -27.9 L 86.2 -27.9 L 86.2 -27.9 Q 86.2 -30.5 88.2 -32 L 88.2 -32 L 88.2 -32 Q 90.2 -33.5 93.2 -33.5 L 93.2 -33.5 L 93.2 -33.5 Q 95.9 -33.5 98 -32.3 L 98 -32.3 L 98 -32.3 Q 99.2 -31.7 99.8 -30.8 L 99.8 -30.8 L 99.8 -30.8 Q 98.3 -29.5 98.3 -27.4 L 98.3 -27.4 L 98.3 -27.4 Q 98.3 -24.6 100.9 -24.6 L 100.9 -24.6 L 100.9 -24.6 Q 105.1 -24.6 107.6 -34.7 L 107.6 -34.7 L 107.6 -34.7 Q 108.3 -37.5 108.9 -40.2 L 108.9 -40.2 L 108.9 -40.2 Q 106 -36.7 99.4 -36.7 L 99.4 -36.7 L 99.4 -36.7 Q 94.9 -36.7 92.3 -38.9 L 92.3 -38.9 L 92.3 -38.9 Q 89.7 -41.1 89.7 -46.2 L 89.7 -46.2 L 89.7 -46.2 Q 89.7 -49.4 90.7 -53 L 90.7 -53 L 90.7 -53 Q 91.8 -56.6 94 -59.7 Z M 102.3 -46 L 102.3 -46 L 102.3 -46 Q 102.3 -41.6 104.6 -41.6 L 104.6 -41.6 L 104.6 -41.6 Q 106.1 -41.6 107.6 -43.3 L 107.6 -43.3 L 107.6 -43.3 Q 108.7 -44.7 109.2 -46.6 L 109.2 -46.6 L 112.4 -63.1 L 112.4 -63.1 Q 112.1 -63.2 111.8 -63.3 L 111.8 -63.3 L 111.8 -63.3 Q 111.2 -63.5 110.3 -63.5 L 110.3 -63.5 L 110.3 -63.5 Q 106.4 -63.5 104.1 -57.1 L 104.1 -57.1 L 104.1 -57.1 Q 102.3 -52.1 102.3 -46 Z M 153.7 -43.8 L 153.7 -43.8 L 153.7 -43.8 Q 155.3 -42.7 155.3 -40.3 L 155.3 -40.3 L 155.3 -40.3 Q 155.3 -37.9 154.1 -36.3 L 154.1 -36.3 L 154.1 -36.3 Q 152.9 -34.8 150.9 -33.8 L 150.9 -33.8 L 150.9 -33.8 Q 146.8 -31.7 142.4 -31.7 L 142.4 -31.7 L 142.4 -31.7 Q 138 -31.7 135.4 -32.6 L 135.4 -32.6 L 135.4 -32.6 Q 132.8 -33.6 131.1 -35.4 L 131.1 -35.4 L 131.1 -35.4 Q 127.7 -38.8 127.7 -45 L 127.7 -45 L 127.7 -45 Q 127.7 -54.6 132.9 -60.5 L 132.9 -60.5 L 132.9 -60.5 Q 138.6 -66.9 148.3 -66.9 L 148.3 -66.9 L 148.3 -66.9 Q 154.4 -66.9 157.4 -64.3 L 157.4 -64.3 L 157.4 -64.3 Q 159.7 -62.4 159.7 -59.2 L 159.7 -59.2 L 159.7 -59.2 Q 159.7 -48 140.2 -48 L 140.2 -48 L 140.2 -48 Q 140 -46.3 140 -44.9 L 140 -44.9 L 140 -44.9 Q 140 -42 141.3 -40.8 L 141.3 -40.8 L 141.3 -40.8 Q 142.6 -39.7 145 -39.7 L 145 -39.7 L 145 -39.7 Q 147.4 -39.7 150 -40.8 L 150 -40.8 L 150 -40.8 Q 152.6 -42 153.7 -43.8 Z M 140.7 -50.7 L 140.7 -50.7 L 140.7 -50.7 Q 145.2 -50.7 147.8 -53.6 L 147.8 -53.6 L 147.8 -53.6 Q 150.5 -56.2 150.5 -60.5 L 150.5 -60.5 L 150.5 -60.5 Q 150.5 -62 149.9 -62.8 L 149.9 -62.8 L 149.9 -62.8 Q 149.4 -63.6 148.3 -63.6 L 148.3 -63.6 L 148.3 -63.6 Q 147.2 -63.6 146.3 -63.2 L 146.3 -63.2 L 146.3 -63.2 Q 145.3 -62.8 144.4 -61.4 L 144.4 -61.4 L 144.4 -61.4 Q 142 -58.2 140.7 -50.7 Z M 181 -55.4 L 181 -55.4 L 181 -55.4 Q 181.9 -57.8 181.9 -59.8 L 181.9 -59.8 L 181.9 -59.8 Q 181.9 -63.6 178.8 -63.6 L 178.8 -63.6 L 178.8 -63.6 Q 177.2 -63.6 175.9 -62.2 L 175.9 -62.2 L 175.9 -62.2 Q 174.6 -60.7 174.6 -58.9 L 174.6 -58.9 L 174.6 -58.9 Q 174.6 -57.6 175.6 -56.6 L 175.6 -56.6 L 175.6 -56.6 Q 177.1 -55.2 180.9 -52.9 L 180.9 -52.9 L 180.9 -52.9 Q 184.6 -50.6 186.1 -48.7 L 186.1 -48.7 L 186.1 -48.7 Q 187.5 -46.8 187.5 -44.2 L 187.5 -44.2 L 187.5 -44.2 Q 187.5 -41.6 186.3 -39.3 L 186.3 -39.3 L 186.3 -39.3 Q 185 -36.9 182.8 -35.2 L 182.8 -35.2 L 182.8 -35.2 Q 178 -31.7 170.3 -31.7 L 170.3 -31.7 L 170.3 -31.7 Q 166.1 -31.7 162.9 -33.8 L 162.9 -33.8 L 162.9 -33.8 Q 159.7 -36 159.7 -38.4 L 159.7 -38.4 L 159.7 -38.4 Q 159.7 -40.9 161.6 -42.4 L 161.6 -42.4 L 161.6 -42.4 Q 163.4 -43.9 166.1 -43.9 L 166.1 -43.9 L 166.1 -43.9 Q 168.8 -43.9 170.4 -42.9 L 170.4 -42.9 L 170.4 -42.9 Q 169.6 -40.8 169.6 -39.3 L 169.6 -39.3 L 169.6 -39.3 Q 169.6 -35.1 173.2 -35.1 L 173.2 -35.1 L 173.2 -35.1 Q 174.7 -35.1 175.7 -36.1 L 175.7 -36.1 L 175.7 -36.1 Q 176.8 -37 176.8 -38.7 L 176.8 -38.7 L 176.8 -38.7 Q 176.8 -42 171.3 -45.4 L 171.3 -45.4 L 171.3 -45.4 Q 166.8 -48.4 165.8 -49.5 L 165.8 -49.5 L 165.8 -49.5 Q 164 -51.6 164 -54.1 L 164 -54.1 L 164 -54.1 Q 164 -56.7 165.2 -59.1 L 165.2 -59.1 L 165.2 -59.1 Q 166.5 -61.6 168.7 -63.3 L 168.7 -63.3 L 168.7 -63.3 Q 173.4 -66.9 181.5 -66.9 L 181.5 -66.9 L 181.5 -66.9 Q 185.7 -66.9 188.1 -65.2 L 188.1 -65.2 L 188.1 -65.2 Q 190.6 -63.5 190.6 -60.7 L 190.6 -60.7 L 190.6 -60.7 Q 190.6 -57.9 188.9 -56.3 L 188.9 -56.3 L 188.9 -56.3 Q 187.2 -54.7 184.1 -54.7 L 184.1 -54.7 L 184.1 -54.7 Q 182 -54.7 181 -55.4 Z M 232.1 -53.6 L 245 -54.7 L 245 -54.7 Q 240.4 -44.6 240.4 -32.9 L 240.4 -32.9 L 240.4 -32.9 Q 238.6 -31.7 236.1 -31.7 L 236.1 -31.7 L 236.1 -31.7 Q 233.6 -31.7 232 -32.8 L 232 -32.8 L 232 -32.8 Q 230.4 -34 230.1 -35.2 L 230.1 -35.2 L 230.1 -35.2 Q 228.5 -33.6 225.9 -32.6 L 225.9 -32.6 L 225.9 -32.6 Q 223.3 -31.7 220.5 -31.7 L 220.5 -31.7 L 220.5 -31.7 Q 217.8 -31.7 215.4 -32.6 L 215.4 -32.6 L 215.4 -32.6 Q 213 -33.5 211.1 -35.4 L 211.1 -35.4 L 211.1 -35.4 Q 207 -39.8 207 -48 L 207 -48 L 207 -48 Q 207 -60.8 213.9 -68.5 L 213.9 -68.5 L 213.9 -68.5 Q 220.9 -76.5 233.4 -76.5 L 233.4 -76.5 L 233.4 -76.5 Q 242 -76.5 245.1 -72 L 245.1 -72 L 245.1 -72 Q 246.1 -70.6 246.1 -68.9 L 246.1 -68.9 L 246.1 -68.9 Q 246.1 -67.2 245.3 -65.7 L 245.3 -65.7 L 245.3 -65.7 Q 244.6 -64.3 243.4 -63.2 L 243.4 -63.2 L 243.4 -63.2 Q 240.7 -60.6 237.3 -60.6 L 237.3 -60.6 L 237.3 -60.6 Q 236 -60.6 234.7 -61 L 234.7 -61 L 234.7 -61 Q 234.9 -63 234.9 -65.2 L 234.9 -65.2 L 234.9 -65.2 Q 234.9 -67.4 234.8 -68.5 L 234.8 -68.5 L 234.8 -68.5 Q 234.6 -69.5 234.2 -70.3 L 234.2 -70.3 L 234.2 -70.3 Q 233.4 -72 231.6 -72 L 231.6 -72 L 231.6 -72 Q 229.8 -72 227.7 -70.1 L 227.7 -70.1 L 227.7 -70.1 Q 225.7 -68.1 224.1 -64.9 L 224.1 -64.9 L 224.1 -64.9 Q 220.6 -57.8 220.6 -49.1 L 220.6 -49.1 L 220.6 -49.1 Q 220.6 -45.2 222.1 -42.4 L 222.1 -42.4 L 222.1 -42.4 Q 223.8 -39.3 226.7 -39.3 L 226.7 -39.3 L 226.7 -39.3 Q 227.8 -39.3 228.7 -39.8 L 228.7 -39.8 L 228.7 -39.8 Q 229.6 -40.3 230 -40.7 L 230 -40.7 L 232.1 -53.6 Z M 250.9 -34.9 L 250.9 -34.9 L 250.9 -34.9 Q 249.4 -36.5 248.7 -39.2 L 248.7 -39.2 L 248.7 -39.2 Q 248.1 -41.8 248.1 -46.1 L 248.1 -46.1 L 248.1 -46.1 Q 248.1 -50.4 249.5 -54.3 L 249.5 -54.3 L 249.5 -54.3 Q 251 -58.2 253.7 -61 L 253.7 -61 L 253.7 -61 Q 259.2 -66.9 268.3 -66.9 L 268.3 -66.9 L 268.3 -66.9 Q 271.5 -66.9 273.9 -65.8 L 273.9 -65.8 L 284.9 -66.9 L 280.1 -41.9 L 280.1 -41.9 Q 279.9 -41.1 279.9 -39.7 L 279.9 -39.7 L 279.9 -39.7 Q 279.9 -38.3 280.8 -37.4 L 280.8 -37.4 L 280.8 -37.4 Q 281.7 -36.5 282.9 -36.4 L 282.9 -36.4 L 282.9 -36.4 Q 282.3 -34.2 280 -32.9 L 280 -32.9 L 280 -32.9 Q 277.6 -31.7 275 -31.7 L 275 -31.7 L 275 -31.7 Q 272.4 -31.7 270.6 -32.7 L 270.6 -32.7 L 270.6 -32.7 Q 268.9 -33.6 268.3 -35.3 L 268.3 -35.3 L 268.3 -35.3 Q 267.3 -33.7 265.1 -32.7 L 265.1 -32.7 L 265.1 -32.7 Q 263 -31.7 260.1 -31.7 L 260.1 -31.7 L 260.1 -31.7 Q 257.1 -31.7 254.8 -32.4 L 254.8 -32.4 L 254.8 -32.4 Q 252.4 -33.2 250.9 -34.9 Z M 264.4 -60.8 L 264.4 -60.8 L 264.4 -60.8 Q 263.7 -59.7 263 -57.7 L 263 -57.7 L 263 -57.7 Q 262.4 -55.8 261.3 -50.6 L 261.3 -50.6 L 261.3 -50.6 Q 260.3 -45.4 260.3 -41.6 L 260.3 -41.6 L 260.3 -41.6 Q 260.3 -37.9 260.9 -36.8 L 260.9 -36.8 L 260.9 -36.8 Q 261.4 -35.8 262.5 -35.8 L 262.5 -35.8 L 262.5 -35.8 Q 264.5 -35.8 266 -37.7 L 266 -37.7 L 266 -37.7 Q 267.5 -39.7 268.1 -43.1 L 268.1 -43.1 L 271.5 -61.9 L 271.5 -61.9 Q 270.1 -63 268.6 -63 L 268.6 -63 L 268.6 -63 Q 267 -63 266.1 -62.5 L 266.1 -62.5 L 266.1 -62.5 Q 265.1 -62 264.4 -60.8 Z M 303.6 -36.5 L 303.6 -36.5 L 303.6 -36.5 Q 301.6 -31.7 295.3 -31.7 L 295.3 -31.7 L 295.3 -31.7 Q 292.1 -31.7 290 -33.9 L 290 -33.9 L 290 -33.9 Q 288.4 -35.8 288.4 -37.9 L 288.4 -37.9 L 288.4 -37.9 Q 288.4 -42.7 290.6 -53.2 L 290.6 -53.2 L 295.3 -77.7 L 308.3 -79 L 302.1 -46.6 L 302.1 -46.6 Q 301 -41.9 301 -40.2 L 301 -40.2 L 301 -40.2 Q 301 -36.6 303.6 -36.5 Z M 324.3 -36.5 L 324.3 -36.5 L 324.3 -36.5 Q 322.4 -31.7 316 -31.7 L 316 -31.7 L 316 -31.7 Q 312.8 -31.7 310.8 -33.9 L 310.8 -33.9 L 310.8 -33.9 Q 309.1 -35.8 309.1 -37.9 L 309.1 -37.9 L 309.1 -37.9 Q 309.1 -42.7 311.4 -53.2 L 311.4 -53.2 L 316 -77.7 L 329 -79 L 322.8 -46.6 L 322.8 -46.6 Q 321.7 -41.9 321.7 -40.2 L 321.7 -40.2 L 321.7 -40.2 Q 321.7 -36.6 324.3 -36.5 Z M 355.7 -43.8 L 355.7 -43.8 L 355.7 -43.8 Q 357.3 -42.7 357.3 -40.3 L 357.3 -40.3 L 357.3 -40.3 Q 357.3 -37.9 356.1 -36.3 L 356.1 -36.3 L 356.1 -36.3 Q 354.9 -34.8 352.9 -33.8 L 352.9 -33.8 L 352.9 -33.8 Q 348.8 -31.7 344.4 -31.7 L 344.4 -31.7 L 344.4 -31.7 Q 340 -31.7 337.4 -32.6 L 337.4 -32.6 L 337.4 -32.6 Q 334.8 -33.6 333 -35.4 L 333 -35.4 L 333 -35.4 Q 329.7 -38.8 329.7 -45 L 329.7 -45 L 329.7 -45 Q 329.7 -54.6 334.9 -60.5 L 334.9 -60.5 L 334.9 -60.5 Q 340.5 -66.9 350.3 -66.9 L 350.3 -66.9 L 350.3 -66.9 Q 356.4 -66.9 359.4 -64.3 L 359.4 -64.3 L 359.4 -64.3 Q 361.7 -62.4 361.7 -59.2 L 361.7 -59.2 L 361.7 -59.2 Q 361.7 -48 342.2 -48 L 342.2 -48 L 342.2 -48 Q 341.9 -46.3 341.9 -44.9 L 341.9 -44.9 L 341.9 -44.9 Q 341.9 -42 343.3 -40.8 L 343.3 -40.8 L 343.3 -40.8 Q 344.6 -39.7 347 -39.7 L 347 -39.7 L 347 -39.7 Q 349.4 -39.7 352 -40.8 L 352 -40.8 L 352 -40.8 Q 354.6 -42 355.7 -43.8 Z M 342.6 -50.7 L 342.6 -50.7 L 342.6 -50.7 Q 347.2 -50.7 349.8 -53.6 L 349.8 -53.6 L 349.8 -53.6 Q 352.4 -56.2 352.4 -60.5 L 352.4 -60.5 L 352.4 -60.5 Q 352.4 -62 351.9 -62.8 L 351.9 -62.8 L 351.9 -62.8 Q 351.4 -63.6 350.3 -63.6 L 350.3 -63.6 L 350.3 -63.6 Q 349.2 -63.6 348.2 -63.2 L 348.2 -63.2 L 348.2 -63.2 Q 347.3 -62.8 346.4 -61.4 L 346.4 -61.4 L 346.4 -61.4 Q 344 -58.2 342.6 -50.7 Z M 383.9 -50.9 L 383.9 -50.9 L 383.9 -50.9 Q 386.2 -55 386.2 -59.2 L 386.2 -59.2 L 386.2 -59.2 Q 386.2 -61.9 384.2 -61.9 L 384.2 -61.9 L 384.2 -61.9 Q 382.6 -61.9 381 -59.3 L 381 -59.3 L 381 -59.3 Q 379.4 -56.7 378.9 -53.3 L 378.9 -53.3 L 375.5 -32.9 L 362.3 -31.7 L 368.8 -65.6 L 379.4 -66.9 L 378.2 -60.4 L 378.2 -60.4 Q 381.4 -66.9 388.4 -66.9 L 388.4 -66.9 L 388.4 -66.9 Q 392.1 -66.9 394.1 -64.9 L 394.1 -64.9 L 394.1 -64.9 Q 396.2 -63 396.2 -59.1 L 396.2 -59.1 L 396.2 -59.1 Q 396.2 -55.2 393.6 -52.7 L 393.6 -52.7 L 393.6 -52.7 Q 391 -50.2 386.6 -50.2 L 386.6 -50.2 L 386.6 -50.2 Q 384.6 -50.2 383.9 -50.9 Z M 417.5 -40.2 L 417.5 -40.2 L 417.5 -40.2 Q 414.2 -36.7 408.1 -36.7 L 408.1 -36.7 L 408.1 -36.7 Q 400.5 -36.7 398.9 -42.3 L 398.9 -42.3 L 398.9 -42.3 Q 398.4 -44 398.4 -45.8 L 398.4 -45.8 L 398.4 -45.8 Q 398.4 -47.7 398.8 -49.6 L 398.8 -49.6 L 401.8 -65.6 L 414.8 -66.9 L 411.3 -48.2 L 411.3 -48.2 Q 411.1 -47.4 410.9 -46.5 L 410.9 -46.5 L 410.9 -46.5 Q 410.7 -45.6 410.7 -44.7 L 410.7 -44.7 L 410.7 -44.7 Q 410.7 -43.8 411.1 -43.2 L 411.1 -43.2 L 411.1 -43.2 Q 411.4 -42.5 411.8 -42.2 L 411.8 -42.2 L 411.8 -42.2 Q 412.6 -41.6 414 -41.6 L 414 -41.6 L 414 -41.6 Q 415.4 -41.6 416.5 -43.3 L 416.5 -43.3 L 416.5 -43.3 Q 417.7 -45 418.3 -47.9 L 418.3 -47.9 L 421.8 -65.6 L 434.4 -66.9 L 429.6 -41.7 L 429.6 -41.7 Q 427.3 -29.4 422.4 -24.6 L 422.4 -24.6 L 422.4 -24.6 Q 419.9 -22.1 416.7 -21.1 L 416.7 -21.1 L 416.7 -21.1 Q 413.4 -20.1 409.3 -20.1 L 409.3 -20.1 L 409.3 -20.1 Q 402.6 -20.1 398.7 -22.2 L 398.7 -22.2 L 398.7 -22.2 Q 394.9 -24.3 394.9 -27.8 L 394.9 -27.8 L 394.9 -27.8 Q 394.9 -30.4 396.9 -32 L 396.9 -32 L 396.9 -32 Q 398.8 -33.5 401.9 -33.5 L 401.9 -33.5 L 401.9 -33.5 Q 404.6 -33.5 406.6 -32.3 L 406.6 -32.3 L 406.6 -32.3 Q 407.9 -31.6 408.4 -30.7 L 408.4 -30.7 L 408.4 -30.7 Q 407 -29.4 407 -27.3 L 407 -27.3 L 407 -27.3 Q 407 -24.5 409.5 -24.5 L 409.5 -24.5 L 409.5 -24.5 Q 413.8 -24.5 416.2 -34.2 L 416.2 -34.2 L 416.2 -34.2 Q 416.9 -37.1 417.5 -40.2 Z" fill="url(#editing-glowing-gradient)"></path></g></g><style>text {
  font-size: 64px;
  font-family: Arial Black;
  dominant-baseline: central;
  text-anchor: middle;
}</style></svg>